<svg id="visual" viewBox="0 0 1440 70" width="1440" height="70" xmlns="http://www.w3.org/2000/svg" xmlns:xlink="http://www.w3.org/1999/xlink" version="1.1"><path d="M0 40L34.3 41.2C68.7 42.3 137.3 44.7 205.8 45C274.3 45.3 342.7 43.7 411.2 47.2C479.7 50.7 548.3 59.3 617 57.5C685.7 55.7 754.3 43.3 823 35.3C891.7 27.3 960.3 23.7 1028.8 28.2C1097.3 32.7 1165.7 45.3 1234.2 47.8C1302.7 50.3 1371.3 42.7 1405.7 38.8L1440 35L1440 0L1405.7 0C1371.3 0 1302.7 0 1234.2 0C1165.7 0 1097.3 0 1028.8 0C960.3 0 891.7 0 823 0C754.3 0 685.7 0 617 0C548.3 0 479.7 0 411.2 0C342.7 0 274.3 0 205.8 0C137.3 0 68.7 0 34.3 0L0 0Z" fill="rgb(0, 172, 163, 0.7)"></path><path d="M0 3L34.3 3.7C68.7 4.3 137.3 5.7 205.8 6.2C274.3 6.7 342.7 6.3 411.2 10.5C479.7 14.7 548.3 23.3 617 24.8C685.7 26.3 754.3 20.7 823 16.8C891.7 13 960.3 11 1028.8 11.7C1097.3 12.3 1165.7 15.7 1234.2 16.3C1302.7 17 1371.3 15 1405.7 14L1440 13L1440 0L1405.7 0C1371.3 0 1302.7 0 1234.2 0C1165.7 0 1097.3 0 1028.8 0C960.3 0 891.7 0 823 0C754.3 0 685.7 0 617 0C548.3 0 479.7 0 411.2 0C342.7 0 274.3 0 205.8 0C137.3 0 68.7 0 34.3 0L0 0Z" fill="#ffffff"></path></svg>