<?xml version="1.0" encoding="UTF-8"?>
<!DOCTYPE svg PUBLIC "-//W3C//DTD SVG 1.1//EN" "http://www.w3.org/Graphics/SVG/1.1/DTD/svg11.dtd">
<svg xmlns="http://www.w3.org/2000/svg" version="1.1" width="2481px" height="2481px" style="shape-rendering:geometricPrecision; text-rendering:geometricPrecision; image-rendering:optimizeQuality; fill-rule:evenodd; clip-rule:evenodd" xmlns:xlink="http://www.w3.org/1999/xlink">
<g><path style="opacity:0.995" fill="#0ba4c6" d="M 1180.5,161.5 C 1257.74,159.881 1334.74,163.381 1411.5,172C 1472.32,181.122 1531.99,195.122 1590.5,214C 1596.43,215.968 1602.1,218.468 1607.5,221.5C 1607,221.833 1606.5,222.167 1606,222.5C 1570.56,214.431 1535.06,206.597 1499.5,199C 1239.65,157.635 998.653,206.635 776.5,346C 740.565,369.137 706.232,394.47 673.5,422C 630.737,459.429 589.903,498.929 551,540.5C 440.528,674.794 366.194,827.461 328,998.5C 290.013,1185 302.679,1368 366,1547.5C 374.071,1569.22 382.238,1590.88 390.5,1612.5C 456.371,1486.4 525.538,1362.4 598,1240.5C 607.756,1223.89 614.756,1206.23 619,1187.5C 621.681,1170.93 619.681,1154.93 613,1139.5C 604.177,1121.17 593.844,1103.84 582,1087.5C 552.523,1050.57 526.523,1011.23 504,969.5C 500.105,962.65 497.938,955.317 497.5,947.5C 500.959,948.436 503.793,950.436 506,953.5C 519.921,974.101 536.088,992.934 554.5,1010C 555.908,1010.32 557.241,1009.98 558.5,1009C 592.658,987.635 622.825,961.468 649,930.5C 655.528,922.283 660.861,913.283 665,903.5C 673.785,883.148 681.785,862.481 689,841.5C 689.637,839.697 690.803,838.364 692.5,837.5C 693.488,840.424 694.154,843.424 694.5,846.5C 691.685,879.094 683.852,910.427 671,940.5C 666.075,949.353 660.409,957.686 654,965.5C 637.369,984.466 620.369,1003.13 603,1021.5C 599.008,1026.16 595.842,1031.33 593.5,1037C 596.798,1041.3 600.465,1045.3 604.5,1049C 624.279,1066.71 644.612,1083.71 665.5,1100C 672.422,1104.15 678.255,1102.99 683,1096.5C 696.37,1073.09 708.703,1049.09 720,1024.5C 738.373,985.182 743.373,944.182 735,901.5C 731.8,869.098 736.133,837.765 748,807.5C 756.044,789.779 767.544,774.613 782.5,762C 803.322,744.843 824.989,728.843 847.5,714C 890.206,687.62 931.54,659.286 971.5,629C 980.455,621.25 984.622,611.417 984,599.5C 987.508,587.666 993.175,576.999 1001,567.5C 1011.77,554.729 1023.27,542.562 1035.5,531C 1061.31,507.688 1086.65,483.855 1111.5,459.5C 1099.23,449.09 1087.4,438.09 1076,426.5C 1061.98,410.107 1053.64,391.107 1051,369.5C 1047.57,352.588 1046.9,335.588 1049,318.5C 1049.92,314.31 1052.09,310.976 1055.5,308.5C 1057.38,336.328 1064.88,362.661 1078,387.5C 1083.79,395.628 1090.63,402.795 1098.5,409C 1110.46,418.982 1123.13,427.982 1136.5,436C 1139.6,437.367 1142.77,438.534 1146,439.5C 1149.66,438.42 1153.16,436.92 1156.5,435C 1171.38,424.463 1185.38,412.797 1198.5,400C 1200.44,398.445 1202.61,397.278 1205,396.5C 1205.5,396.833 1206,397.167 1206.5,397.5C 1201.09,408.002 1194.92,418.002 1188,427.5C 1177.33,440.833 1166.67,454.167 1156,467.5C 1125.36,499.804 1094.36,531.804 1063,563.5C 1058.62,568.919 1055.29,574.919 1053,581.5C 1050.48,594.314 1055.31,598.481 1067.5,594C 1108.27,576.891 1150.6,565.557 1194.5,560C 1201.17,559.333 1207.83,559.333 1214.5,560C 1261.23,574.019 1306.73,591.185 1351,611.5C 1378.17,587.667 1405.33,563.833 1432.5,540C 1449.93,525.236 1467.93,511.236 1486.5,498C 1532.15,499.513 1577.82,501.013 1623.5,502.5C 1638,503.091 1652.33,501.925 1666.5,499C 1676.89,495.938 1685.72,490.438 1693,482.5C 1706.49,464.853 1719.49,446.853 1732,428.5C 1735.31,424.019 1739.15,420.019 1743.5,416.5C 1744.63,418.074 1744.8,419.741 1744,421.5C 1736.35,446.45 1726.35,470.45 1714,493.5C 1703.88,510.992 1689.38,523.492 1670.5,531C 1644.45,538.96 1617.78,543.294 1590.5,544C 1569.49,544.901 1548.49,545.901 1527.5,547C 1512.67,547.035 1499.33,551.368 1487.5,560C 1463.93,582.239 1441.76,605.739 1421,630.5C 1415.76,636.648 1411.26,643.315 1407.5,650.5C 1414.03,657.196 1421.03,663.363 1428.5,669C 1488.69,712.495 1545.35,760.495 1598.5,813C 1615.5,813.333 1632.5,813.667 1649.5,814C 1665.52,813.671 1679.52,818.671 1691.5,829C 1711.26,844.093 1729.09,861.259 1745,880.5C 1745.48,881.448 1745.65,882.448 1745.5,883.5C 1740.97,882.237 1736.63,880.403 1732.5,878C 1717.17,868 1701.83,858 1686.5,848C 1675.52,840.257 1663.35,835.757 1650,834.5C 1635.82,836.446 1621.66,838.446 1607.5,840.5C 1597.15,839.993 1587.48,837.159 1578.5,832C 1567.49,825.161 1556.82,817.827 1546.5,810C 1543.95,808.558 1541.28,807.392 1538.5,806.5C 1533.22,809.631 1530.06,814.298 1529,820.5C 1524.58,834.862 1521.74,849.529 1520.5,864.5C 1521.41,879.788 1525.57,894.121 1533,907.5C 1538.84,916.508 1544.17,925.841 1549,935.5C 1550.32,941.928 1548.49,943.095 1543.5,939C 1532.89,929.396 1523.39,918.896 1515,907.5C 1506.4,890.221 1502.4,871.888 1503,852.5C 1503.02,830.834 1503.02,809.167 1503,787.5C 1478.34,761.15 1450.5,738.983 1419.5,721C 1357.19,682.846 1291.86,650.513 1223.5,624C 1204.81,617.737 1185.81,616.403 1166.5,620C 1127.25,628.966 1091.25,644.966 1058.5,668C 1003.19,707.808 949.193,749.308 896.5,792.5C 906.48,804.315 916.647,815.981 927,827.5C 939.793,846.429 948.793,867.095 954,889.5C 958.093,911.818 962.093,934.151 966,956.5C 968.742,969.574 976.242,978.741 988.5,984C 1005.83,991 1023.17,998 1040.5,1005C 1068.56,1018.72 1091.39,1038.55 1109,1064.5C 1111.81,1068.77 1113.31,1073.43 1113.5,1078.5C 1110.07,1078.45 1107.07,1077.29 1104.5,1075C 1080.34,1050.89 1051.67,1034.22 1018.5,1025C 1002.27,1020.82 985.938,1017.15 969.5,1014C 959.33,1010.91 949.997,1006.25 941.5,1000C 935.961,993.422 932.127,985.922 930,977.5C 924.079,954.56 918.412,931.56 913,908.5C 908.74,891.136 900.24,876.303 887.5,864C 878,857.167 868.5,850.333 859,843.5C 856.425,849.315 854.425,855.315 853,861.5C 851.814,883.934 852.814,906.267 856,928.5C 862.077,962.219 868.411,995.886 875,1029.5C 876.777,1051.28 874.444,1072.61 868,1093.5C 854.048,1136.36 838.715,1178.69 822,1220.5C 784.113,1330.26 759.113,1442.93 747,1558.5C 740.166,1617.67 735.833,1677 734,1736.5C 737.924,1739.59 742.424,1741.09 747.5,1741C 798.701,1740.07 849.701,1742.74 900.5,1749C 935.491,1754.08 969.491,1762.91 1002.5,1775.5C 1076.18,1702.98 1151.51,1632.48 1228.5,1564C 1274.54,1520.63 1317.71,1474.8 1358,1426.5C 1385.64,1386.88 1406.64,1343.88 1421,1297.5C 1424.43,1278.3 1426.76,1258.97 1428,1239.5C 1431.42,1187.19 1434.42,1134.86 1437,1082.5C 1438.71,1055.07 1441.37,1027.74 1445,1000.5C 1449.42,976.562 1457.42,953.896 1469,932.5C 1471.05,929.577 1473.21,926.743 1475.5,924C 1476.76,923.018 1478.09,922.685 1479.5,923C 1481.05,925.655 1482.22,928.488 1483,931.5C 1487.66,954.435 1491.99,977.435 1496,1000.5C 1496.8,1003.89 1497.8,1007.23 1499,1010.5C 1501.23,1012.88 1503.73,1013.05 1506.5,1011C 1509.37,1008.46 1511.87,1005.63 1514,1002.5C 1520.66,989.168 1528.33,976.502 1537,964.5C 1540.8,959.855 1545.3,956.188 1550.5,953.5C 1551.44,953.608 1552.28,953.941 1553,954.5C 1556.72,967.905 1558.72,981.572 1559,995.5C 1559.15,998.571 1559.98,1001.4 1561.5,1004C 1582.5,1006.58 1603.5,1009.25 1624.5,1012C 1650.91,1015.04 1673.91,1025.38 1693.5,1043C 1698.1,1045.87 1703.1,1047.53 1708.5,1048C 1751.18,1048.68 1793.85,1048.18 1836.5,1046.5C 1840.54,1069.05 1841.38,1091.72 1839,1114.5C 1836.77,1132.86 1830.77,1149.86 1821,1165.5C 1812.62,1175.88 1802.45,1184.05 1790.5,1190C 1769.94,1199.07 1748.61,1205.74 1726.5,1210C 1708.82,1214.34 1698.99,1225.51 1697,1243.5C 1696.07,1264.28 1698.74,1284.62 1705,1304.5C 1710.54,1323.12 1716.87,1341.46 1724,1359.5C 1734.59,1384.26 1744.59,1409.26 1754,1434.5C 1766.47,1466.66 1773.14,1500 1774,1534.5C 1775.8,1567.69 1774.13,1600.69 1769,1633.5C 1760.93,1665.05 1748.93,1695.05 1733,1723.5C 1719.83,1747.19 1705.16,1769.85 1689,1791.5C 1668.29,1816.54 1647.95,1841.88 1628,1867.5C 1624.2,1873.44 1621.2,1879.77 1619,1886.5C 1618,1897.18 1622.83,1903.68 1633.5,1906C 1734.38,1932.61 1827.38,1975.61 1912.5,2035C 1914.04,2036.19 1915.71,2036.52 1917.5,2036C 2085.05,1913.79 2206.55,1755.96 2282,1562.5C 2283.49,1561.26 2284.32,1561.76 2284.5,1564C 2271.02,1609.45 2254.18,1653.61 2234,1696.5C 2119.7,1934.14 1943.53,2109.64 1705.5,2223C 1485.39,2321.65 1257.05,2346.32 1020.5,2297C 790.529,2243.49 597.696,2128.99 442,1953.5C 279.451,1767.71 190.784,1550.71 176,1302.5C 162.34,1014.48 247.34,760.477 431,540.5C 629.312,314.423 879.145,188.089 1180.5,161.5 Z M 1363.5,1483.5 C 1369.93,1492.18 1376.27,1501.01 1382.5,1510C 1384.7,1510.82 1386.53,1510.32 1388,1508.5C 1390,1503.83 1392,1499.17 1394,1494.5C 1398.06,1487.53 1401.4,1487.86 1404,1495.5C 1405.16,1502.1 1405.83,1508.77 1406,1515.5C 1407.27,1521.06 1410.77,1524.23 1416.5,1525C 1431.17,1528.33 1445.83,1531.67 1460.5,1535C 1469.5,1537.67 1477.84,1541.67 1485.5,1547C 1500.27,1561.72 1517.6,1572.39 1537.5,1579C 1540.67,1580.83 1543.17,1583.33 1545,1586.5C 1549.28,1599.7 1549.61,1613.04 1546,1626.5C 1544.86,1630.11 1543.19,1633.45 1541,1636.5C 1525.73,1646.11 1510.73,1656.11 1496,1666.5C 1490.63,1674.5 1488.46,1683.33 1489.5,1693C 1489.94,1710.27 1493.78,1726.77 1501,1742.5C 1534.02,1803.71 1541.69,1868.04 1524,1935.5C 1516.93,1963.77 1508.93,1991.77 1500,2019.5C 1487.63,2060.16 1486.3,2101.16 1496,2142.5C 1497.07,2147.38 1498.74,2152.05 1501,2156.5C 1502.8,2158.32 1504.97,2159.48 1507.5,2160C 1515.63,2159.65 1523.29,2161.31 1530.5,2165C 1540.18,2172.53 1540.85,2180.69 1532.5,2189.5C 1522.64,2196.38 1511.64,2199.38 1499.5,2198.5C 1485.7,2199.96 1474.2,2195.63 1465,2185.5C 1459.9,2174.12 1455.57,2162.46 1452,2150.5C 1446.33,2138.83 1440.67,2127.17 1435,2115.5C 1433.61,2110.24 1432.61,2104.91 1432,2099.5C 1431.76,2082.78 1430.76,2066.12 1429,2049.5C 1425.6,2023.19 1413.77,2001.69 1393.5,1985C 1391.18,1983.01 1388.52,1981.84 1385.5,1981.5C 1385.49,1983.31 1385.99,1984.98 1387,1986.5C 1395.85,1997.53 1403.19,2009.53 1409,2022.5C 1416.18,2044.79 1414.52,2066.46 1404,2087.5C 1395.5,2106.52 1384.5,2123.86 1371,2139.5C 1363.68,2145.65 1356.85,2152.32 1350.5,2159.5C 1368.16,2160.33 1385.82,2160.83 1403.5,2161C 1413.18,2161.47 1422.51,2163.47 1431.5,2167C 1440.21,2171.74 1445.21,2179.08 1446.5,2189C 1444.15,2192.36 1440.82,2194.02 1436.5,2194C 1421.86,2195.14 1407.19,2195.8 1392.5,2196C 1326.17,2196.67 1259.83,2196.67 1193.5,2196C 1167.13,2195.85 1140.8,2194.85 1114.5,2193C 1069.94,2189.13 1031.77,2171.63 1000,2140.5C 972.943,2109.27 963.943,2073.61 973,2033.5C 977.767,2019.29 985.1,2006.63 995,1995.5C 1006.3,1982.53 1019.14,1971.36 1033.5,1962C 1053.01,1950.31 1073.67,1947.31 1095.5,1953C 1104.64,1957.09 1107.14,1963.59 1103,1972.5C 1088.51,1982.66 1073.01,1991.16 1056.5,1998C 1031.06,2010.04 1018.72,2030.2 1019.5,2058.5C 1020.59,2091.71 1035.92,2115.54 1065.5,2130C 1090.61,2138.49 1115.11,2136.99 1139,2125.5C 1139.33,2091.5 1139.67,2057.5 1140,2023.5C 1141.42,1958.9 1163.08,1902.23 1205,1853.5C 1214.9,1842.93 1225.4,1833.1 1236.5,1824C 1258.15,1808.17 1280.15,1792.84 1302.5,1778C 1309.34,1773.49 1315.18,1767.99 1320,1761.5C 1321.62,1757.65 1322.62,1753.65 1323,1749.5C 1324.01,1738.19 1324.68,1726.86 1325,1715.5C 1325.33,1678.17 1325.67,1640.83 1326,1603.5C 1324.82,1580.64 1328.48,1558.64 1337,1537.5C 1343.19,1523.92 1349.19,1510.25 1355,1496.5C 1357.36,1491.76 1360.19,1487.43 1363.5,1483.5 Z"/></g>
<g><path style="opacity:0.987" fill="#01b6a9" d="M 1342.5,234.5 C 1345.19,234.336 1347.85,234.503 1350.5,235C 1351.94,236.126 1352.61,237.626 1352.5,239.5C 1345.94,282.122 1327.61,318.622 1297.5,349C 1285.01,359.745 1270.68,367.078 1254.5,371C 1241.77,374.915 1228.77,376.581 1215.5,376C 1214.64,375.311 1213.98,374.478 1213.5,373.5C 1215.53,367.117 1218.36,361.117 1222,355.5C 1232.86,339.634 1244.86,324.634 1258,310.5C 1273.83,296 1289,280.833 1303.5,265C 1303.17,264.833 1302.83,264.667 1302.5,264.5C 1286.62,272.875 1272.29,283.375 1259.5,296C 1241.47,313.587 1225.97,333.087 1213,354.5C 1211.43,356.923 1209.26,358.256 1206.5,358.5C 1203.07,319.519 1217.74,289.353 1250.5,268C 1269.25,257.858 1288.92,249.858 1309.5,244C 1320.66,240.964 1331.66,237.797 1342.5,234.5 Z"/></g>
<g><path style="opacity:0.981" fill="#01b6a9" d="M 1413.5,238.5 C 1432.56,238.087 1451.56,238.921 1470.5,241C 1474.02,241.395 1477.35,242.395 1480.5,244C 1481.29,245.085 1481.96,246.252 1482.5,247.5C 1481.81,250.088 1480.64,252.421 1479,254.5C 1466.76,268.739 1453.26,281.572 1438.5,293C 1419.21,306.073 1398.21,310.073 1375.5,305C 1368.23,303.933 1361.23,302.099 1354.5,299.5C 1365.14,290.365 1376.47,282.198 1388.5,275C 1406.7,266.271 1425.03,257.938 1443.5,250C 1435.56,249.565 1427.9,250.898 1420.5,254C 1402.71,261.726 1385.05,269.726 1367.5,278C 1364.08,279.904 1360.41,280.737 1356.5,280.5C 1356.93,275.31 1358.76,270.643 1362,266.5C 1375.11,249.531 1392.27,240.197 1413.5,238.5 Z"/></g>
<g><path style="opacity:0.982" fill="#01b6a9" d="M 1176.5,247.5 C 1177.12,247.611 1177.62,247.944 1178,248.5C 1178.9,276.917 1172.56,303.583 1159,328.5C 1143.92,350.793 1123.08,364.127 1096.5,368.5C 1096.13,363.295 1096.97,358.295 1099,353.5C 1110.29,327.58 1124.79,303.746 1142.5,282C 1141.83,281.333 1141.17,281.333 1140.5,282C 1120.3,301.241 1104.13,323.408 1092,348.5C 1090.32,350.351 1088.48,352.018 1086.5,353.5C 1084.8,352.636 1083.64,351.303 1083,349.5C 1082.24,316.843 1095.74,292.01 1123.5,275C 1140.38,264.228 1158.05,255.061 1176.5,247.5 Z"/></g>
<g><path style="opacity:0.982" fill="#01b6a9" d="M 1505.5,266.5 C 1530.14,266.884 1554.14,271.051 1577.5,279C 1601.79,286.955 1617.62,303.121 1625,327.5C 1626.12,332.102 1626.62,336.768 1626.5,341.5C 1624.22,341.392 1622.22,340.559 1620.5,339C 1599.75,317.235 1576.42,298.901 1550.5,284C 1546.11,281.456 1541.44,280.123 1536.5,280C 1545.34,287.837 1555.01,294.504 1565.5,300C 1582.98,313.337 1599.15,328.171 1614,344.5C 1616.81,347.944 1618.97,351.777 1620.5,356C 1619.42,358.75 1617.42,360.417 1614.5,361C 1585.14,361.236 1559.97,351.069 1539,330.5C 1523.71,312.429 1511.88,292.263 1503.5,270C 1503.98,268.697 1504.64,267.531 1505.5,266.5 Z"/></g>
<g><path style="opacity:0.981" fill="#01b6a9" d="M 1680.5,269.5 C 1682.93,269.523 1685.26,270.023 1687.5,271C 1707.79,284.28 1725.95,300.114 1742,318.5C 1760.12,341.479 1763.46,366.479 1752,393.5C 1751.28,394.451 1750.45,394.617 1749.5,394C 1744.65,381.769 1740.48,369.269 1737,356.5C 1730.34,338.833 1722.34,321.833 1713,305.5C 1710.37,301.868 1707.37,298.535 1704,295.5C 1703.33,296.833 1703.33,298.167 1704,299.5C 1715.79,320.089 1725.13,341.756 1732,364.5C 1735.45,375.085 1737.62,385.919 1738.5,397C 1738.43,399.95 1737.77,402.617 1736.5,405C 1733.07,405.701 1729.74,405.368 1726.5,404C 1695.98,383.811 1679.81,355.311 1678,318.5C 1677.33,306.167 1677.33,293.833 1678,281.5C 1678.52,277.416 1679.36,273.416 1680.5,269.5 Z"/></g>
<g><path style="opacity:0.978" fill="#01b6a9" d="M 969.5,307.5 C 997.342,308.586 1019.34,320.419 1035.5,343C 1021,339.043 1006.34,335.376 991.5,332C 973.996,328.388 956.329,327.055 938.5,328C 928.466,329.676 928.133,332.009 937.5,335C 968.072,334.795 997.739,339.795 1026.5,350C 1028.33,351.167 1030.17,352.333 1032,353.5C 1032.98,354.759 1033.32,356.092 1033,357.5C 1027.03,363.572 1019.87,367.738 1011.5,370C 986.583,379.145 961.916,378.478 937.5,368C 919.297,361.078 903.297,350.912 889.5,337.5C 899.459,331.021 910.126,325.854 921.5,322C 937.439,316.522 953.439,311.688 969.5,307.5 Z"/></g>
<g><path style="opacity:0.978" fill="#01b6a9" d="M 1396.5,336.5 C 1414.85,336.167 1433.18,336.5 1451.5,337.5C 1439.61,355.058 1425.95,371.224 1410.5,386C 1388.85,402.465 1364.52,408.799 1337.5,405C 1333.55,404.464 1330.05,402.964 1327,400.5C 1326.14,397.449 1326.81,394.783 1329,392.5C 1335.26,386.241 1342.09,380.741 1349.5,376C 1370.66,364.95 1391.99,354.283 1413.5,344C 1408.11,344.345 1402.77,345.345 1397.5,347C 1381.54,352.652 1366.21,359.652 1351.5,368C 1342.9,373.882 1334.07,379.382 1325,384.5C 1323.5,384.333 1322.67,383.5 1322.5,382C 1326.61,366.582 1335.27,354.582 1348.5,346C 1351.67,344.275 1355.01,342.942 1358.5,342C 1371.2,339.39 1383.87,337.557 1396.5,336.5 Z"/></g>
<g><path style="opacity:0.985" fill="#01b6a9" d="M 1516.5,356.5 C 1551.74,366.123 1584.08,381.623 1613.5,403C 1633.45,417.404 1644.12,436.904 1645.5,461.5C 1645.16,463.867 1644.66,466.2 1644,468.5C 1642.61,469.554 1641.11,469.72 1639.5,469C 1635,465.833 1631.17,462 1628,457.5C 1620.21,446.758 1613.04,435.591 1606.5,424C 1591.92,413.425 1577.92,402.091 1564.5,390C 1560.75,387.376 1556.92,384.876 1553,382.5C 1560.15,391.993 1568.49,400.659 1578,408.5C 1589.81,421.462 1601.14,434.795 1612,448.5C 1621.33,461.487 1628.83,475.487 1634.5,490.5C 1634.47,492.029 1633.8,493.196 1632.5,494C 1589.84,490.976 1557.67,471.143 1536,434.5C 1523.25,412.189 1515.75,388.189 1513.5,362.5C 1513.47,359.898 1514.47,357.898 1516.5,356.5 Z"/></g>
<g><path style="opacity:0.977" fill="#01b6a9" d="M 865.5,360.5 C 868.529,362.372 870.695,365.039 872,368.5C 881.213,389.232 885.547,410.899 885,433.5C 882.347,450.309 874.847,464.476 862.5,476C 860.105,478.145 857.938,477.978 856,475.5C 853.887,470.716 852.554,465.716 852,460.5C 851.734,453.976 851.234,447.476 850.5,441C 851.65,426.169 852.483,411.336 853,396.5C 849.755,403.477 847.755,410.81 847,418.5C 845.263,437.139 844.096,455.806 843.5,474.5C 842.325,474.719 841.325,474.386 840.5,473.5C 827.165,453.323 824.999,431.99 834,409.5C 841.933,391.424 852.433,375.09 865.5,360.5 Z"/></g>
<g><path style="opacity:0.987" fill="#01b6a9" d="M 1483.5,365.5 C 1486.18,398.427 1483.01,431.094 1474,463.5C 1463.49,496 1442.99,519.834 1412.5,535C 1406.5,538 1400.5,541 1394.5,544C 1390.37,545.9 1386.03,546.733 1381.5,546.5C 1380.97,538.574 1382.13,530.907 1385,523.5C 1399.55,482.054 1420.05,444.054 1446.5,409.5C 1446,408.479 1445.33,408.312 1444.5,409C 1438.33,415.167 1432.17,421.333 1426,427.5C 1402.98,459.538 1384.64,494.205 1371,531.5C 1364.88,520.671 1361.71,509.004 1361.5,496.5C 1361.88,471.849 1370.38,450.516 1387,432.5C 1401.62,417.621 1417.79,404.787 1435.5,394C 1451.4,384.222 1467.4,374.722 1483.5,365.5 Z"/></g>
<g><path style="opacity:0.978" fill="#01b6a9" d="M 1806.5,407.5 C 1819.44,408.045 1832.1,410.212 1844.5,414C 1861.52,419.351 1878.19,425.518 1894.5,432.5C 1884.93,440.906 1874.93,448.739 1864.5,456C 1842.09,468.938 1818.09,473.938 1792.5,471C 1782.03,468.177 1772.03,464.177 1762.5,459C 1760.29,457.491 1758.46,455.658 1757,453.5C 1756.32,452.216 1756.48,451.049 1757.5,450C 1762.6,447.117 1767.93,444.783 1773.5,443C 1799.85,436.129 1826.52,430.796 1853.5,427C 1838.14,426.163 1822.8,426.496 1807.5,428C 1789.31,431.455 1771.31,435.622 1753.5,440.5C 1753.35,439.448 1753.52,438.448 1754,437.5C 1764.14,426.353 1775.97,417.52 1789.5,411C 1795.23,409.432 1800.9,408.265 1806.5,407.5 Z"/></g>
<g><path style="opacity:0.982" fill="#01b6a9" d="M 955.5,410.5 C 974.711,409.565 993.711,411.065 1012.5,415C 1033.22,421.716 1048.39,434.883 1058,454.5C 1060.33,457.822 1061.5,461.489 1061.5,465.5C 1057.49,465.498 1053.82,464.332 1050.5,462C 1022.22,442.4 991.216,428.9 957.5,421.5C 956.5,421.833 955.5,422.167 954.5,422.5C 957.166,424.835 960.166,426.669 963.5,428C 994.844,437.839 1023.84,452.173 1050.5,471C 1053.63,473.128 1056.46,475.628 1059,478.5C 1059.6,482.588 1057.77,485.088 1053.5,486C 1026.11,491.956 999.44,489.623 973.5,479C 950.089,464.256 930.589,445.423 915,422.5C 914.03,417.452 916.197,414.618 921.5,414C 932.922,412.303 944.255,411.136 955.5,410.5 Z"/></g>
<g><path style="opacity:0.983" fill="#01b6a9" d="M 756.5,419.5 C 791.929,437.43 818.095,464.43 835,500.5C 836.973,506.696 838.306,513.029 839,519.5C 839.667,530.833 839.667,542.167 839,553.5C 838.454,559.351 837.121,565.018 835,570.5C 832.155,574.141 828.988,574.308 825.5,571C 814.485,559.143 805.318,545.976 798,531.5C 786.957,509.749 777.291,487.416 769,464.5C 769.077,470.522 769.743,476.522 771,482.5C 779.753,510.67 791.753,537.337 807,562.5C 810.627,566.767 813.461,571.434 815.5,576.5C 804.575,574.704 794.909,570.204 786.5,563C 771.385,552.273 762.219,537.773 759,519.5C 757.507,510.219 756.507,500.886 756,491.5C 755.521,467.496 755.688,443.496 756.5,419.5 Z"/></g>
<g><path style="opacity:0.98" fill="#01b5a8" d="M 1257.5,424.5 C 1259.75,445.413 1257.25,466.08 1250,486.5C 1236.89,517.427 1213.72,536.094 1180.5,542.5C 1191.1,506.128 1209.76,474.628 1236.5,448C 1232.06,448.887 1228.06,450.887 1224.5,454C 1214.15,463.673 1205.32,474.506 1198,486.5C 1190.63,499.415 1183.13,512.249 1175.5,525C 1173.57,525.783 1172.07,525.283 1171,523.5C 1168.2,506.366 1171.87,490.699 1182,476.5C 1194.04,461.126 1208.54,448.626 1225.5,439C 1236.14,433.843 1246.8,429.01 1257.5,424.5 Z"/></g>
<g><path style="opacity:0.985" fill="#01b6a9" d="M 694.5,473.5 C 695.497,473.47 696.164,473.97 696.5,475C 709.297,511.69 712.463,549.19 706,587.5C 702.837,598.161 697.837,607.828 691,616.5C 679.403,629.264 667.236,641.598 654.5,653.5C 652.973,630.119 653.473,606.786 656,583.5C 659.621,564.017 664.954,545.017 672,526.5C 674.986,517.63 673.652,516.63 668,523.5C 652.585,557.493 643.919,593.16 642,630.5C 640.711,637.069 637.711,638.069 633,633.5C 615.28,598.228 618.28,564.895 642,533.5C 658.591,512.74 676.091,492.74 694.5,473.5 Z"/></g>
<g><path style="opacity:0.98" fill="#01b6a9" d="M 918.5,490.5 C 920.199,490.34 921.866,490.506 923.5,491C 941.158,507.786 953.658,527.953 961,551.5C 965.827,568.59 965.493,585.59 960,602.5C 956.575,611.784 952.575,620.784 948,629.5C 941.308,617.78 935.975,605.446 932,592.5C 927.59,575.374 924.257,558.041 922,540.5C 921.409,536.118 919.909,532.118 917.5,528.5C 916.749,529.376 916.249,530.376 916,531.5C 914.981,546.04 916.315,560.374 920,574.5C 923.002,586.171 926.002,597.838 929,609.5C 929.499,613.152 929.665,616.818 929.5,620.5C 927.801,620.66 926.134,620.494 924.5,620C 899.4,595.185 892.9,566.018 905,532.5C 907.966,517.957 912.466,503.957 918.5,490.5 Z"/></g>
<g><path style="opacity:0.984" fill="#01b6a9" d="M 1761.5,496.5 C 1779.37,495.841 1796.37,499.341 1812.5,507C 1838.84,523.089 1863.68,541.256 1887,561.5C 1889.11,563.271 1888.95,564.771 1886.5,566C 1854.64,581.706 1820.97,588.706 1785.5,587C 1760.38,584.272 1738.72,574.272 1720.5,557C 1713.68,549.349 1706.68,541.849 1699.5,534.5C 1719.32,530.723 1739.32,529.557 1759.5,531C 1788.06,532.899 1815.89,538.399 1843,547.5C 1844.26,547.15 1844.59,546.483 1844,545.5C 1837.81,540.82 1830.97,537.32 1823.5,535C 1787.6,523.624 1750.93,519.124 1713.5,521.5C 1713.34,520.127 1713.51,518.793 1714,517.5C 1723.06,509.215 1733.56,503.382 1745.5,500C 1750.95,498.745 1756.29,497.578 1761.5,496.5 Z"/></g>
<g><path style="opacity:0.979" fill="#01b6a9" d="M 1292.5,521.5 C 1304.54,521.192 1316.54,521.692 1328.5,523C 1342.02,524.171 1352.52,530.337 1360,541.5C 1363.83,547.833 1367.67,554.167 1371.5,560.5C 1371.17,560.833 1370.83,561.167 1370.5,561.5C 1342.11,544.571 1311.44,535.738 1278.5,535C 1304.54,541.678 1329.87,550.345 1354.5,561C 1358.61,563.448 1362.45,566.281 1366,569.5C 1368,571.833 1368,574.167 1366,576.5C 1360.34,580.054 1354.17,582.22 1347.5,583C 1329.17,585.79 1311.17,584.457 1293.5,579C 1274.32,568.169 1257.16,554.669 1242,538.5C 1240.01,536.321 1240.18,534.488 1242.5,533C 1259,527.805 1275.66,523.972 1292.5,521.5 Z"/></g>
<g><path style="opacity:0.995" fill="#76cdd7" d="M 2258.5,547.5 C 2259.5,547.414 2260.33,547.748 2261,548.5C 2261.35,568.218 2260.52,587.885 2258.5,607.5C 2258.83,608.167 2259.17,608.833 2259.5,609.5C 2271.02,602.412 2281.35,593.912 2290.5,584C 2293.59,581.937 2296.42,582.103 2299,584.5C 2299.45,606.808 2296.95,628.808 2291.5,650.5C 2291.57,652.739 2292.74,653.739 2295,653.5C 2297.73,652.204 2300.57,651.704 2303.5,652C 2304.69,662.671 2303.53,673.171 2300,683.5C 2294.81,700.074 2288.64,716.241 2281.5,732C 2285.32,732.121 2288.99,731.287 2292.5,729.5C 2293.48,729.977 2294.31,730.643 2295,731.5C 2287.46,763.731 2271.3,790.898 2246.5,813C 2253.17,813.333 2259.83,813.667 2266.5,814C 2270.43,814.58 2271.93,816.747 2271,820.5C 2264.95,829.556 2257.78,837.722 2249.5,845C 2243.65,849.091 2237.99,853.424 2232.5,858C 2234.33,859.833 2236.17,861.667 2238,863.5C 2238.71,865.367 2238.21,866.867 2236.5,868C 2222.68,873.549 2209.01,879.383 2195.5,885.5C 2199.46,886.137 2203.3,887.137 2207,888.5C 2207.88,891.917 2206.71,894.417 2203.5,896C 2194.81,900.138 2185.64,901.971 2176,901.5C 2162.75,901.521 2150.09,898.855 2138,893.5C 2136.62,894.551 2135.62,895.884 2135,897.5C 2132.8,909.245 2133.13,920.912 2136,932.5C 2138.15,937.46 2140.81,942.127 2144,946.5C 2170.5,974.32 2195.5,1003.32 2219,1033.5C 2247.42,1074.34 2267.75,1119.01 2280,1167.5C 2280.89,1170.71 2280.56,1173.71 2279,1176.5C 2274.85,1172.2 2271.18,1167.53 2268,1162.5C 2257.5,1143.5 2246.5,1124.84 2235,1106.5C 2233.94,1104.6 2233.1,1104.44 2232.5,1106C 2234.92,1111.71 2235.92,1117.54 2235.5,1123.5C 2232.88,1121.59 2230.71,1119.26 2229,1116.5C 2218.41,1099 2208.08,1081.33 2198,1063.5C 2193.25,1056.32 2188.25,1049.32 2183,1042.5C 2181.29,1044.96 2179.96,1047.62 2179,1050.5C 2175.31,1065.27 2171.31,1079.93 2167,1094.5C 2165.28,1095.55 2164.28,1094.89 2164,1092.5C 2162.57,1084.85 2161.24,1077.18 2160,1069.5C 2156.61,1082.68 2152.61,1095.68 2148,1108.5C 2147.28,1110.96 2145.94,1111.96 2144,1111.5C 2146.04,1090.04 2147.87,1068.54 2149.5,1047C 2149.69,1018.71 2137.69,997.376 2113.5,983C 2102.77,982.096 2093.44,978.096 2085.5,971C 2081.7,966.199 2077.53,961.699 2073,957.5C 2049.17,970.331 2024.34,980.831 1998.5,989C 1992.81,991.373 1987.64,994.54 1983,998.5C 1984.25,993.171 1986.75,988.338 1990.5,984C 1983.23,981.465 1975.89,979.132 1968.5,977C 1982.51,976.051 1996.51,975.051 2010.5,974C 2024.06,971.133 2035.23,964.299 2044,953.5C 2048.71,945.251 2053.54,937.084 2058.5,929C 2048.96,926.2 2039.3,923.866 2029.5,922C 2006.73,911.849 1982.9,905.682 1958,903.5C 1945.58,908.834 1944.42,907.001 1954.5,898C 1951.13,894.297 1947.47,890.964 1943.5,888C 1956.58,889.548 1969.58,891.882 1982.5,895C 1996.12,901.656 2010.45,904.322 2025.5,903C 2033.51,900.479 2037.51,894.979 2037.5,886.5C 2034.33,853.779 2018.66,845.612 1990.5,862C 1983.74,867.132 1976.57,871.632 1969,875.5C 1968.23,875.355 1967.56,875.022 1967,874.5C 1973.84,855.978 1979.5,836.978 1984,817.5C 1989.04,799.788 2000.54,788.954 2018.5,785C 2035.22,782.111 2051.39,783.944 2067,790.5C 2069.63,790.066 2072.13,789.233 2074.5,788C 2085.44,775.066 2095.6,761.566 2105,747.5C 2137.67,696.146 2171.34,645.479 2206,595.5C 2214.13,585.702 2222.63,576.202 2231.5,567C 2240.21,559.989 2249.21,553.489 2258.5,547.5 Z"/></g>
<g><path style="opacity:0.98" fill="#01b6a9" d="M 1647.5,572.5 C 1665.76,571.051 1682.76,574.884 1698.5,584C 1719.08,603.731 1736.41,625.898 1750.5,650.5C 1730.43,652.147 1710.43,651.647 1690.5,649C 1661.81,643.625 1641.31,627.792 1629,601.5C 1627.39,597.55 1627.23,593.55 1628.5,589.5C 1633.52,588.2 1638.52,588.367 1643.5,590C 1671.35,599.766 1697.35,612.266 1721.5,627.5C 1711.01,615.59 1698.68,606.09 1684.5,599C 1670.42,590.79 1655.42,585.123 1639.5,582C 1638.45,580.612 1638.28,579.112 1639,577.5C 1641.4,574.892 1644.23,573.225 1647.5,572.5 Z"/></g>
<g><path style="opacity:0.98" fill="#01b6a9" d="M 1527.5,582.5 C 1544.56,582.113 1561.56,582.779 1578.5,584.5C 1578.16,589.192 1576.66,593.526 1574,597.5C 1564.28,611.552 1552.78,624.052 1539.5,635C 1528.07,642.924 1515.41,647.924 1501.5,650C 1488.87,652.582 1476.21,652.915 1463.5,651C 1455.92,647.502 1455.59,643.169 1462.5,638C 1483.57,622.458 1506.23,609.458 1530.5,599C 1532.83,597.333 1535.17,595.667 1537.5,594C 1533.79,593.561 1530.12,593.894 1526.5,595C 1504.61,602.446 1484.27,612.779 1465.5,626C 1462.44,628.035 1459.11,629.201 1455.5,629.5C 1461.35,607.809 1475.02,593.309 1496.5,586C 1506.93,584.384 1517.27,583.218 1527.5,582.5 Z"/></g>
<g><path style="opacity:0.983" fill="#01b6a9" d="M 770.5,590.5 C 787.17,590.333 803.837,590.5 820.5,591C 839.727,591.852 857.061,597.852 872.5,609C 885.183,622.287 894.85,637.121 901.5,653.5C 887.666,644.749 873.666,636.249 859.5,628C 842.344,618.837 824.344,611.837 805.5,607C 799.55,605.578 793.55,604.911 787.5,605C 802.675,611.392 818.009,617.392 833.5,623C 854.461,632.052 873.294,644.219 890,659.5C 891.301,661.365 891.635,663.365 891,665.5C 884.813,670.676 877.647,673.509 869.5,674C 845.469,677.384 823.136,672.718 802.5,660C 776.269,643.614 756.269,621.78 742.5,594.5C 751.92,592.825 761.253,591.492 770.5,590.5 Z"/></g>
<g><path style="opacity:0.982" fill="#01b6a9" d="M 690.5,661.5 C 703.837,661.333 717.171,661.5 730.5,662C 747.356,663.397 763.022,668.397 777.5,677C 789.275,686.276 797.275,698.109 801.5,712.5C 799.801,712.66 798.134,712.494 796.5,712C 765.572,691.876 731.906,678.376 695.5,671.5C 695.281,672.675 695.614,673.675 696.5,674.5C 709.152,680.218 722.152,685.051 735.5,689C 757.764,697.544 778.264,709.044 797,723.5C 799,725.833 799,728.167 797,730.5C 787.289,736.21 776.789,738.543 765.5,737.5C 737.488,737.816 713.154,728.65 692.5,710C 684.333,701.833 676.167,693.667 668,685.5C 664.501,681.173 661.501,676.506 659,671.5C 658.316,670.216 658.483,669.049 659.5,668C 662.089,666.803 664.756,665.803 667.5,665C 675.322,663.901 682.989,662.734 690.5,661.5 Z"/></g>
<g><path style="opacity:0.987" fill="#01b6a9" d="M 1151.5,661.5 C 1171.45,662.19 1190.78,666.023 1209.5,673C 1239.48,685.154 1267.81,700.154 1294.5,718C 1264.67,736.915 1232.67,750.915 1198.5,760C 1175.4,765.721 1152.73,764.387 1130.5,756C 1114.95,749.893 1100.28,742.227 1086.5,733C 1082.67,730.5 1079.5,727.333 1077,723.5C 1076.24,721.231 1076.41,719.064 1077.5,717C 1130.64,699.568 1184.47,697.068 1239,709.5C 1240.4,709.491 1241.57,708.991 1242.5,708C 1236.29,702.368 1228.96,699.034 1220.5,698C 1186.93,692.855 1153.27,692.188 1119.5,696C 1104.26,698.247 1089.26,701.247 1074.5,705C 1089.29,686.211 1107.95,672.877 1130.5,665C 1137.58,663.443 1144.58,662.276 1151.5,661.5 Z"/></g>
<g><path style="opacity:0.985" fill="#01b6a9" d="M 1563.5,663.5 C 1581.82,661.571 1599.49,664.071 1616.5,671C 1642.07,680.617 1666.4,692.617 1689.5,707C 1691.04,708.599 1691.54,710.433 1691,712.5C 1688.13,716.031 1684.63,718.864 1680.5,721C 1653.01,735.717 1623.85,745.217 1593,749.5C 1566.76,748.642 1542.93,740.809 1521.5,726C 1517.96,722.799 1514.8,719.299 1512,715.5C 1511.03,712.173 1512.2,710.007 1515.5,709C 1547.76,698.94 1580.76,695.273 1614.5,698C 1626.44,699.994 1638.44,700.994 1650.5,701C 1645.36,697.627 1639.69,695.627 1633.5,695C 1593.4,688.587 1553.4,689.087 1513.5,696.5C 1512.83,696.167 1512.17,695.833 1511.5,695.5C 1523.25,683.79 1536.58,674.29 1551.5,667C 1555.62,665.808 1559.62,664.641 1563.5,663.5 Z"/></g>
<g><path style="opacity:0.984" fill="#01b6a9" d="M 592.5,665.5 C 622.192,680.993 648.692,700.993 672,725.5C 676.057,730.558 679.724,735.892 683,741.5C 687.084,754.338 688.917,767.505 688.5,781C 689.116,792.137 687.616,802.97 684,813.5C 682.579,816.622 680.913,816.956 679,814.5C 670.001,776.508 654.001,741.841 631,710.5C 627.605,706.191 623.771,703.191 619.5,701.5C 646.002,739.017 663.002,780.517 670.5,826C 670.167,827.167 669.833,828.333 669.5,829.5C 645.429,819.574 625.262,804.574 609,784.5C 600.082,771.42 594.082,757.086 591,741.5C 586.557,722.4 584.89,703.066 586,683.5C 586.697,676.903 588.864,670.903 592.5,665.5 Z"/></g>
<g><path style="opacity:0.988" fill="#01b6a9" d="M 1338.5,731.5 C 1353.99,730.808 1369.32,731.974 1384.5,735C 1390.5,736.499 1396.17,738.832 1401.5,742C 1403.42,743.241 1403.75,744.741 1402.5,746.5C 1359.21,755.096 1318.21,769.93 1279.5,791C 1272.03,794.741 1265.69,799.908 1260.5,806.5C 1275.21,800.659 1289.87,793.826 1304.5,786C 1337.71,772.651 1372.05,763.484 1407.5,758.5C 1414.4,758.565 1416.9,761.898 1415,768.5C 1411.56,776.937 1406.89,784.603 1401,791.5C 1385.48,809.36 1367.31,823.86 1346.5,835C 1326.53,840.219 1306.2,842.886 1285.5,843C 1267.44,843.837 1249.44,843.17 1231.5,841C 1226.93,840.477 1222.76,838.977 1219,836.5C 1218.33,834.833 1218.33,833.167 1219,831.5C 1239.28,801.551 1263.44,775.051 1291.5,752C 1301.98,744.427 1313.31,738.427 1325.5,734C 1329.99,733.24 1334.32,732.406 1338.5,731.5 Z"/></g>
<g><path style="opacity:0.986" fill="#01b6a9" d="M 1775.5,744.5 C 1795.48,744.462 1814.81,747.962 1833.5,755C 1857.23,763.53 1879.89,774.197 1901.5,787C 1902.55,788.388 1902.72,789.888 1902,791.5C 1889.63,802.275 1876.13,811.441 1861.5,819C 1830.81,837.528 1797.81,843.528 1762.5,837C 1746.55,834.796 1731.55,829.796 1717.5,822C 1712.87,819.095 1708.7,815.595 1705,811.5C 1704.33,809.5 1704.33,807.5 1705,805.5C 1707.89,802.943 1711.06,800.776 1714.5,799C 1741.06,789.907 1768.39,784.907 1796.5,784C 1814.19,783.844 1831.86,783.178 1849.5,782C 1851.04,781.71 1852.38,781.044 1853.5,780C 1850.64,778.601 1847.64,777.601 1844.5,777C 1798.44,772.227 1753.1,776.061 1708.5,788.5C 1707.5,788.167 1706.83,787.5 1706.5,786.5C 1718.9,768.588 1735.24,755.754 1755.5,748C 1762.26,746.502 1768.92,745.335 1775.5,744.5 Z"/></g>
<g><path style="opacity:0.982" fill="#01b6a9" d="M 511.5,768.5 C 513.017,768.511 514.184,769.177 515,770.5C 538.317,808.039 542.983,847.705 529,889.5C 521.97,904.696 511.803,917.362 498.5,927.5C 494.856,909.725 493.19,891.725 493.5,873.5C 493.317,854.309 495.151,835.309 499,816.5C 500.494,802.326 498.827,801.993 494,815.5C 491.247,825.685 489.247,836.018 488,846.5C 486.172,869.802 484.839,893.135 484,916.5C 482.853,917.458 481.853,917.125 481,915.5C 472.037,903.906 466.037,890.906 463,876.5C 461.716,854.968 466.716,834.968 478,816.5C 487.829,799.515 498.995,783.515 511.5,768.5 Z"/></g>
<g><path style="opacity:0.987" fill="#01b6a9" d="M 1018.5,778.5 C 1042.36,778.548 1064.69,784.381 1085.5,796C 1113.65,813.146 1139.82,832.979 1164,855.5C 1165.18,859.26 1164.01,862.093 1160.5,864C 1123.51,880.064 1084.85,887.397 1044.5,886C 1010.3,878.655 980.801,862.821 956,838.5C 953.019,835.021 951.186,831.021 950.5,826.5C 950.45,823.426 951.783,821.259 954.5,820C 995.13,816.894 1035.46,819.56 1075.5,828C 1087.95,831.262 1100.29,834.929 1112.5,839C 1114.5,839.667 1116.5,839.667 1118.5,839C 1100.08,827.464 1080.08,819.797 1058.5,816C 1043.96,813.066 1029.29,811.066 1014.5,810C 995.436,809.773 976.436,808.773 957.5,807C 956.124,804.46 956.79,802.46 959.5,801C 971.468,791.723 984.801,785.056 999.5,781C 1005.98,780.138 1012.31,779.305 1018.5,778.5 Z"/></g>
<g><path style="opacity:0.982" fill="#01b6a9" d="M 573.5,796.5 C 578.531,796.701 582.864,798.534 586.5,802C 602.795,816.625 617.295,832.791 630,850.5C 640.117,865.301 644.45,881.635 643,899.5C 640.664,911.501 637.331,923.168 633,934.5C 627.064,898.36 615.731,864.026 599,831.5C 597.692,829.359 596.192,827.359 594.5,825.5C 594.167,826.167 593.833,826.833 593.5,827.5C 597.638,841.415 602.472,855.081 608,868.5C 616.109,891.156 620.109,914.489 620,938.5C 619.311,939.357 618.478,940.023 617.5,940.5C 613.554,939.194 609.888,937.361 606.5,935C 589.866,921.716 577.033,905.549 568,886.5C 562.631,858.428 562.631,830.428 568,802.5C 569.36,799.977 571.193,797.977 573.5,796.5 Z"/></g>
<g><path style="opacity:0.98" fill="#01b6a9" d="M 1442.5,828.5 C 1451.29,828.091 1459.96,828.924 1468.5,831C 1471.29,831.561 1473.62,832.894 1475.5,835C 1474.95,835.925 1474.29,836.758 1473.5,837.5C 1447.7,846.233 1423.04,857.4 1399.5,871C 1393.56,874.611 1387.89,878.611 1382.5,883C 1385.24,882.981 1387.91,882.314 1390.5,881C 1408.48,871.845 1426.81,863.511 1445.5,856C 1457.13,851.592 1469.13,848.759 1481.5,847.5C 1483.59,847.486 1485.43,848.152 1487,849.5C 1487.62,856.613 1485.62,862.947 1481,868.5C 1450.63,905.626 1411.8,919.126 1364.5,909C 1357.97,907.859 1355.8,904.359 1358,898.5C 1366.29,887.874 1374.96,877.541 1384,867.5C 1392.53,858.636 1401.36,850.136 1410.5,842C 1420.13,834.85 1430.8,830.35 1442.5,828.5 Z"/></g>
<g><path style="opacity:0.979" fill="#01b6a9" d="M 1789.5,887.5 C 1811.16,885.776 1830.16,891.943 1846.5,906C 1860.88,919.368 1873.38,934.202 1884,950.5C 1888.84,958.296 1886.67,962.463 1877.5,963C 1855.89,964.699 1834.56,963.033 1813.5,958C 1804.07,954.787 1795.74,949.787 1788.5,943C 1782.3,937.136 1776.47,930.969 1771,924.5C 1767.77,920.703 1765.6,916.37 1764.5,911.5C 1764.23,908.601 1765.56,907.101 1768.5,907C 1778.71,906.589 1788.71,907.922 1798.5,911C 1817.4,916.523 1835.4,924.19 1852.5,934C 1854.16,934.788 1855.83,935.122 1857.5,935C 1846.01,924.743 1833.01,916.743 1818.5,911C 1803.53,903.842 1787.86,899.009 1771.5,896.5C 1770.29,895.726 1770.29,894.893 1771.5,894C 1777.43,891.303 1783.43,889.136 1789.5,887.5 Z"/></g>
<g><path style="opacity:0.977" fill="#01b6a9" d="M 1589.5,896.5 C 1611.03,898.768 1629.7,907.268 1645.5,922C 1655.01,931.347 1664.35,940.847 1673.5,950.5C 1647.89,959.721 1621.89,960.887 1595.5,954C 1576.36,947.528 1562.19,935.361 1553,917.5C 1552.25,916.365 1552.42,915.365 1553.5,914.5C 1582.11,916.403 1609.78,922.57 1636.5,933C 1646.31,934.947 1646.31,933.28 1636.5,928C 1614.12,918.238 1590.78,912.238 1566.5,910C 1565.55,909.282 1565.38,908.449 1566,907.5C 1572.59,900.95 1580.43,897.284 1589.5,896.5 Z"/></g>
<g><path style="opacity:0.978" fill="#01b6a9" d="M 1124.5,955.5 C 1150.75,957.896 1176.09,964.063 1200.5,974C 1202.4,975.808 1202.9,977.975 1202,980.5C 1196.74,987.758 1190.24,993.591 1182.5,998C 1164.53,1009.99 1144.86,1017.49 1123.5,1020.5C 1110.76,1019.99 1098.43,1017.49 1086.5,1013C 1083.09,1011.55 1079.92,1009.71 1077,1007.5C 1076.32,1003.82 1077.82,1001.32 1081.5,1000C 1105.48,988.004 1130.82,980.671 1157.5,978C 1168.38,974.077 1168.05,972.244 1156.5,972.5C 1132.29,973.775 1108.96,978.942 1086.5,988C 1083.5,988.667 1080.5,988.667 1077.5,988C 1076.54,985.353 1077.04,982.853 1079,980.5C 1091.55,967.312 1106.71,958.979 1124.5,955.5 Z"/></g>
</svg>
