<?xml version="1.0" encoding="UTF-8"?><svg id="Camada_1" xmlns="http://www.w3.org/2000/svg" viewBox="0 0 158 165"><defs><style>.cls-1{stroke-width:3.07px;}.cls-1,.cls-2,.cls-3,.cls-4{stroke-miterlimit:10;}.cls-1,.cls-3,.cls-4{fill:none;stroke:#fff;}.cls-2{fill:#40ccbc;stroke:#e9e8eb;stroke-width:.44px;}.cls-3{stroke-width:2.4px;}.cls-4{stroke-width:2.36px;}.cls-5{fill:#008db5;opacity:.5;}</style></defs><ellipse class="cls-5" cx="77.05" cy="82.11" rx="69.95" ry="76.9"/><path class="cls-3" d="m53.24,55.72s.01-.05.02-.07c.19-.74.37-1.26.4-1.36,1.13-3.67,2.89-6.32,4.14-7.95,1.88,2.04,3.75,4.08,5.63,6.12"/><path class="cls-3" d="m69.81,59.39c-.19-.22-.4-.42-.59-.64"/><path class="cls-3" d="m89.63,59.44c-1.5-.61-3.13-1.11-4.89-1.44-6.38-1.22-11.78.25-14.93,1.39-.19-.22-.4-.42-.59-.64"/><path class="cls-3" d="m105.2,67.73c.36-1.46.86-3.51.86-6.2,0-.09.01-.19.01-.28.06-2.25-.15-4.71-.78-7.3-.03-.11-.06-.23-.09-.34-.01-.03-.02-.07-.03-.11-.92-3.56-2.41-6.35-3.69-8.29-3.93-2.16-11.08-5.38-20.38-5.68-4.56-.14-8.45.44-11.22,1.07"/><path class="cls-3" d="m58.03,45.32c-1.33,1.65-3.81,5.17-4.76,10.33.19-.74.37-1.26.4-1.36,1.13-3.67,2.89-6.32,4.14-7.95,1.88,2.04,3.75,4.08,5.63,6.12"/><path class="cls-3" d="m103.76,71.6s.01,0,0-.01"/><path class="cls-3" d="m79.78,70.22c-3.33-3.61-6.65-7.22-9.97-10.84"/><path class="cls-3" d="m52.7,59.07c.01-.23.03-.45.05-.69.1-.99.3-1.93.49-2.66"/><path class="cls-3" d="m93.79,85.48c8.61,9.36,17.22,18.73,25.83,28.09,0,0,2.79,3.75-.46,4.32l-10.52-2.72s-4.82-1.71-3.81,2.27c1.01,3.98,2.25,10.8,2.25,10.8,0,0,0,1.71-1.01,2.21-1.2.59-3.1-1.03-3.81-1.65-2.35-2.01-12.24-13.67-22.53-26.02"/><path class="cls-3" d="m53.4,66.98c.61,2.61,1.48,4.88,2.27,6.61,2.19,2.68,5.75,7.01,9.95,12.12"/><path class="cls-1" d="m101.59,46.34c-20.5,22.44-41,44.87-61.49,67.31,0,0-2.8,3.75.45,4.32l10.53-2.73s4.82-1.7,3.81,2.27c-1.01,3.97-2.24,10.79-2.24,10.79,0,0,0,1.72,1,2.21,1.19.59,3.09-1.03,3.81-1.65,4.54-3.89,35.69-42.56,44.36-53.34.8-1,1.87-2.53,2.68-4.59.3-.77.93-2.52,1.24-6.54.3-3.84.51-6.13-.11-9.09-.9-4.26-2.81-7.3-4.03-8.97Z"/><ellipse class="cls-4" cx="54.36" cy="49.12" rx="17.63" ry="17.88"/><path class="cls-2" d="m62.13,45.32h-4.11v-4.07c0-1.14-.91-2.07-2.04-2.07h-3.43c-1.13,0-2.04.93-2.04,2.07v4.07h-3.92c-1.13,0-2.04.93-2.04,2.07v3.47c0,1.14.91,2.07,2.04,2.07h3.92v4.07c0,1.14.91,2.07,2.04,2.07h3.43c1.13,0,2.04-.93,2.04-2.07v-4.07h4.11c1.13,0,2.04-.93,2.04-2.07v-3.47c0-1.14-.91-2.07-2.04-2.07Z"/></svg>