<?xml version="1.0" encoding="UTF-8"?><svg id="Camada_1" xmlns="http://www.w3.org/2000/svg" xmlns:xlink="http://www.w3.org/1999/xlink" viewBox="0 0 1920 190"><defs><style>.cls-1{fill:#f1f0f3;filter:url(#drop-shadow-6);}.cls-2{fill:#40cbbb;filter:url(#drop-shadow-5);opacity:.69;}</style><filter id="drop-shadow-5" filterUnits="userSpaceOnUse"><feOffset dx="0" dy="9.7"/><feGaussianBlur result="blur" stdDeviation="3.47"/><feFlood flood-color="#000000" flood-opacity=".4"/><feComposite in2="blur" operator="in"/><feComposite in="SourceGraphic"/></filter><filter id="drop-shadow-6" filterUnits="userSpaceOnUse"><feOffset dx="0" dy="9.7"/><feGaussianBlur result="blur-2" stdDeviation="3.47"/><feFlood flood-color="#000000" flood-opacity=".4"/><feComposite in2="blur-2" operator="in"/><feComposite in="SourceGraphic"/></filter></defs><path class="cls-2" d="m.68,23.35h1919.32c-.7,39.61-1.4,79.21-2.11,118.82-284.17,30.71-515.33,33.84-673.99,31.01-290.4-5.17-442.15-25.25-779.19-23.83-204.32.86-371.2,10.07-479.71,17.65C-9.77,119.12-4.55,71.23.68,23.35Z"/><path class="cls-1" d="m.68,2h1919.32c-.7,39.61-1.4,79.21-2.11,118.82-249.4,16.25-451.87,19.91-587.02,20.42-325.07,1.21-483.65-12.72-866.16-13.24-205.73-.28-373.72,3.66-482.71,7C-11.77,90.67-5.55,46.33.68,2Z"/></svg>